<?xml version="1.0" encoding="UTF-8" standalone="no"?>
<!-- Created with Inkscape (http://www.inkscape.org/) -->

<svg
   width="179.63924mm"
   height="194.61189mm"
   viewBox="0 0 179.63924 194.61189"
   version="1.1"
   id="svg5"
   xmlns="http://www.w3.org/2000/svg"
   xmlns:svg="http://www.w3.org/2000/svg">
  <defs
     id="defs2">
    <rect
       x="0.34226226"
       y="0.29982185"
       width="51.434283"
       height="30.593472"
       id="rect67595" />
    <linearGradient
       id="linearGradient12529">
      <stop
         offset="0"
         id="stop12527" />
    </linearGradient>
    <rect
       x="0.34226227"
       y="0.29982185"
       width="51.434284"
       height="30.593472"
       id="rect67595-3" />
    <rect
       x="0.34226227"
       y="0.29982185"
       width="53.180073"
       height="19.678067"
       id="rect67595-5" />
    <rect
       x="0.34226227"
       y="0.29982185"
       width="51.434284"
       height="30.593472"
       id="rect67595-56" />
    <rect
       x="0.34226227"
       y="0.29982185"
       width="76.362797"
       height="22.755016"
       id="rect67595-5-2" />
    <rect
       x="0.34226227"
       y="0.29982185"
       width="76.362801"
       height="22.755016"
       id="rect67595-5-2-9" />
  </defs>
  <g
     id="layer2"
     transform="translate(-20.68277,-38.351918)">
    <g
       id="central">
      <g
         id="central_districts"
         class="districts">
        <path
           d="m 120.50033,123.80411 c 0,0 -7.96057,1.37739 -10.59622,-6.5803 -2.63566,-7.95768 -2.63566,-7.95768 -2.63566,-7.95768 l -6.46158,6.6398 2.44222,5.87631 -5.310843,6.99947 c 0,0 4.557113,-0.34988 5.631953,-0.34588 1.07485,0.004 12.9339,5.56179 12.9339,5.56179 l 3.99623,-10.19351 z"
           id="C6" />
        <path
           d="m 107.61196,147.35932 8.89214,-13.3617 c 0,0 -11.85905,-5.55743 -12.9339,-5.56179 -1.07484,-0.004 -5.631953,0.34588 -5.631953,0.34588 l -3.989257,7.5248 -4.175747,7.04095 -1.719622,3.26616 c 0,0 4.009024,-1.32529 5.72259,-1.39214 1.713564,-0.0668 6.096981,0.29205 6.667009,0.38477 0.77306,0.12575 2.79331,1.26122 3.59731,1.62679 1.13575,0.1116 3.57143,0.12628 3.57143,0.12628 z"
           id="C5" />
        <path
           d="m 107.61196,147.35932 9.21665,10.1965 -6.18429,3.36898 -10.00467,1.04072 -8.851116,-3.18235 -7.42737,-4.80828 3.692459,-7.36127 19.558337,0.7457 c 0,0 -2.43568,-0.0147 -3.57143,-0.12628 -0.804,-0.36557 -2.82425,-1.50104 -3.59731,-1.62679 -0.570028,-0.0927 -4.953445,-0.45157 -6.667009,-0.38477 -1.713566,0.0668 -5.72259,1.39214 -5.72259,1.39214 z"
           id="C4" />
        <path
           d="m 116.5041,133.99762 10.67027,10.84098 -3.56245,1.912 -3.42506,8.81723 -3.35825,1.98799 -9.21665,-10.1965 8.89214,-13.3617 z"
           id="C3" />
        <path
           d="m 127.17437,144.8386 5.89537,-2.84855 6.24069,-9.4995 4.53876,-8.71659 -5.2107,-4.69238 -2.02408,-7.55241 -16.11408,12.27494 -3.99623,10.19351 z"
           id="C2" />
        <path
           d="m 136.61441,111.52917 -5.38515,-2.6687 -8.43277,0.80977 -8.14943,-7.09235 -7.37861,6.68824 c 0,0 0,0 2.63566,7.95768 2.63565,7.95769 10.59622,6.5803 10.59622,6.5803 l 16.11408,-12.27494 z"
           id="C1" />
      </g>
      <g
         id="central_boundaries"
         class="boundaries">
        <path
           d="m 88.053623,146.61362 -3.692459,7.36127 7.42737,4.80828 8.851116,3.18235 10.00467,-1.04072 6.18429,-3.36898"
           id="path6714" />
        <path
           d="m 88.053621,146.61362 c 0,0 4.009024,-1.32529 5.72259,-1.39214 1.713564,-0.0668 6.096981,0.29205 6.667009,0.38477 0.77306,0.12575 2.79331,1.26122 3.59731,1.62679 1.13575,0.1116 3.57143,0.12628 3.57143,0.12628"
           id="path7444" />
        <path
           d="m 107.61196,147.35932 9.21665,10.1965"
           id="path8700" />
        <path
           d="m 107.61196,147.35932 8.89214,-13.3617"
           id="path8702" />
        <path
           d="m 88.053621,146.61362 1.719622,-3.26616 4.175747,-7.04095 3.98926,-7.5248"
           id="path8704" />
        <path
           d="m 116.5041,133.99762 c 0,0 -11.85905,-5.55743 -12.9339,-5.56179 -1.07484,-0.004 -5.631953,0.34588 -5.631953,0.34588"
           id="path8706" />
        <path
           d="m 116.82861,157.55582 3.35825,-1.98799 3.42506,-8.81723 3.56245,-1.912"
           id="path8908" />
        <path
           d="m 116.5041,133.99762 10.67027,10.84098"
           id="path8910" />
        <path
           d="m 127.17437,144.8386 5.89537,-2.84855 6.24069,-9.4995 4.53876,-8.71659 -5.2107,-4.69238 -2.02408,-7.55241"
           id="path8912" />
        <path
           d="m 116.5041,133.99762 3.99623,-10.19351"
           id="path8914" />
        <path
           d="m 97.938247,128.78171 5.310843,-6.99947 -2.44222,-5.87631 6.46158,-6.6398"
           id="path8916" />
        <path
           d="m 136.61441,111.52917 -5.38515,-2.6687 -8.43277,0.80977 -8.14943,-7.09235 -7.37861,6.68824"
           id="path8918" />
        <path
           d="m 120.50033,123.80411 c 0,0 -7.96057,1.37739 -10.59622,-6.5803 -2.63566,-7.95768 -2.63566,-7.95768 -2.63566,-7.95768"
           id="path16038" />
        <path
           d="m 120.50033,123.80411 16.11408,-12.27494"
           id="path16040" />
      </g>
    </g>
    <g
       id="northedge">
      <g
         id="northedge_districts"
         class="districts">
        <path
           d="m 149.79839,103.40775 c 0,0 -0.45906,2.68077 0.77055,3.91862 1.2296,1.23784 2.46035,1.60168 3.60041,1.60706 1.14005,0.005 3.686,-0.56459 4.19658,-0.27905 0.51057,0.28554 1.49606,1.23553 2.57327,1.11602 1.07721,-0.1195 3.60725,-0.29809 4.48435,0.46324 0.87711,0.76134 7.05098,-0.0963 9.26046,-1.44123 2.20948,-1.34492 5.15183,-1.12469 6.32908,-1.64152 1.17725,-0.51683 5.16391,-3.02251 5.81058,-3.95204 0.64667,-0.92953 1.73512,-2.20932 1.37235,-2.7184 -0.36276,-0.509089 -6.39842,-5.467387 -6.79339,-5.887988 -0.4403,-0.468873 -2.41969,-3.655507 -2.41969,-3.655507 -5.97441,3.263653 -12.74193,4.578336 -16.50724,5.016444 -3.76531,0.438108 -12.67731,7.454351 -12.67731,7.454351 z"
           id="N3" />
        <path
           d="m 160.48769,71.803698 c 0,0 2.21107,2.560849 5.82985,5.962161 3.61878,3.401308 12.6654,13.171096 12.6654,13.171096 -5.97441,3.263653 -12.74193,4.578336 -16.50724,5.016444 -3.76531,0.438108 -12.67731,7.454351 -12.67731,7.454351 0,0 -4.31638,-0.69016 -6.40269,-2.28933 -2.08639,-1.599163 -1.60315,-4.360672 -2.10539,-7.326955 -0.50223,-2.966281 -4.03912,-4.828641 -4.03912,-4.828641 l 23.2365,-17.159126 z"
           id="N2" />
        <path
           d="m 160.48769,71.803698 c 0,0 -5.37493,-7.745822 -6.80377,-7.86434 -1.42884,-0.118514 -2.6073,-0.619699 -3.67722,-0.4333 -1.06991,0.186399 -6.13178,2.330228 -6.40173,2.781623 -0.26995,0.451392 -3.31939,3.84969 -3.57597,4.713594 -0.25659,0.863907 -2.63678,4.972955 -2.72543,7.07652 -0.0886,2.103561 -0.0524,10.885029 -0.0524,10.885029 l 23.23652,-17.159126 z"
           id="N1" />
      </g>
      <g
         id="northedge_boundaries"
         class="boundaries">
        <path
           d="m 137.25119,88.962824 23.2365,-17.159126"
           id="path16264" />
        <path
           d="m 149.79839,103.40775 c 0,0 8.912,-7.016243 12.67731,-7.454351 3.76531,-0.438108 10.53283,-1.752791 16.50724,-5.016444"
           id="path16268" />
        <path
           d="m 137.25119,88.962824 c 0,0 3.53689,1.86236 4.03912,4.828641 0.50224,2.966283 0.019,5.727792 2.10539,7.326955 2.08631,1.59917 6.40269,2.28933 6.40269,2.28933"
           id="path16270" />
        <path
           d="m 160.48769,71.803698 c 0,0 2.21107,2.560849 5.82985,5.962161 3.61878,3.401308 12.6654,13.171096 12.6654,13.171096"
           id="path16272" />
        <path
           d="m 149.79839,103.40775 c 0,0 -0.45906,2.68077 0.77055,3.91862 1.2296,1.23784 2.46035,1.60168 3.60041,1.60706 1.14005,0.005 3.686,-0.56459 4.19658,-0.27905 0.51057,0.28554 1.49606,1.23553 2.57327,1.11602 1.07721,-0.1195 3.60725,-0.29809 4.48435,0.46324 0.87711,0.76134 7.05098,-0.0963 9.26046,-1.44123 2.20948,-1.34492 5.15183,-1.12469 6.32908,-1.64152 1.17725,-0.51683 5.16391,-3.02251 5.81058,-3.95204 0.64667,-0.92953 1.73512,-2.20932 1.37235,-2.7184 -0.36276,-0.509089 -6.39842,-5.467387 -6.79339,-5.887988 -0.4403,-0.468873 -2.41969,-3.655507 -2.41969,-3.655507"
           id="path16274" />
        <path
           d="m 160.48769,71.803698 c 0,0 -5.37493,-7.745822 -6.80377,-7.86434 -1.42884,-0.118514 -2.6073,-0.619699 -3.67722,-0.4333 -1.06991,0.186399 -6.13178,2.330228 -6.40173,2.781623 -0.26995,0.451392 -3.31939,3.84969 -3.57597,4.713594 -0.25659,0.863907 -2.63678,4.972955 -2.72543,7.07652 -0.0886,2.103561 -0.0524,10.885029 -0.0524,10.885029"
           id="path16716" />
      </g>
    </g>
    <g
       id="menthis">
      <g
         id="menthis_districts"
         class="districts">
        <path
           d="m 86.410357,190.65142 c 0,0 7.346476,-0.66648 8.379854,-0.60124 1.033378,0.0652 4.186105,0.3332 4.584031,0.27543 0.397925,-0.0578 7.949348,-1.12371 7.949348,-1.12371 0,0 -2.14178,-8.14533 -2.28289,-9.06173 -0.14111,-0.9164 0.27689,-3.88846 0.27689,-3.88846 -0.70082,1.36854 -2.33352,2.05022 -3.02358,2.07556 -0.69007,0.0253 -2.981255,-1.59128 -4.058088,-2.03086 -1.07683,-0.43959 -3.367381,-0.15782 -3.777578,0.14787 -0.410199,0.30568 -0.900853,1.49656 -1.253982,1.56949 -0.353126,0.0729 -4.414213,0.37488 -4.835744,0.80168 -0.421532,0.42679 -1.315339,2.6284 -1.315334,3.04907 3e-6,0.42067 -0.370136,3.1235 -0.64875,3.62111 -0.278612,0.49761 -0.719879,1.00448 -0.779608,1.37763 -0.05973,0.37314 0.785431,3.78816 0.785431,3.78816 z"
           id="M5" />
        <path
           d="m 86.410357,190.65142 c 0,0 -1.763308,4.02973 -1.732052,4.91032 0.03126,0.8806 0.788405,2.5469 1.062408,2.82652 0.274002,0.27962 1.825762,0.77454 2.111017,1.037 0.285253,0.26247 2.612549,3.38664 2.790368,3.45011 0.177818,0.0635 4.815522,1.30922 6.467914,1.27073 1.652389,-0.0385 5.114258,0.77645 5.359948,0.64848 0.24568,-0.12797 1.25951,-0.49394 1.45719,-0.48346 0.19769,0.0105 2.26023,0.55267 2.64855,0.43594 0.38832,-0.11674 3.19526,-2.74375 3.51495,-2.6714 0.31969,0.0723 1.88824,0.69871 1.88824,0.69871 0,0 -1.77397,-7.29875 -2.15496,-8.05551 -0.38097,-0.75677 -2.50034,-5.51696 -2.50034,-5.51696 0,0 -7.551423,1.06591 -7.949348,1.12371 -0.397926,0.0578 -3.550653,-0.21023 -4.584031,-0.27543 -1.033378,-0.0652 -8.379854,0.60124 -8.379854,0.60124 z"
           id="M4" />
        <path
           d="m 111.97889,202.77437 c 0,0 4.81838,0.98497 5.11081,1.20789 0.29243,0.22293 1.05281,0.64999 1.411,0.69874 0.35819,0.0488 3.33262,-0.69263 3.81427,-1.00661 0.48165,-0.31398 3.74291,-0.75888 3.74291,-0.75888 0,0 0.33455,-4.81301 0.47284,-5.35303 0.1383,-0.54003 2.86397,-4.85586 3.08882,-5.33898 0.22485,-0.48312 0.93603,-4.77938 0.93603,-4.77938 0,0 -7.58747,2.03808 -8.58244,0.25408 -0.99496,-1.784 -2.97821,-9.41863 -3.21127,-9.92077 -0.23306,-0.50214 -1.72996,-3.20658 -1.72996,-3.20658 0,0 -0.57015,0.56112 -0.95263,0.75089 -0.38249,0.18972 -1.6661,0.24802 -2.37961,0.25902 -0.71352,0.011 -1.3894,1.69598 -1.69983,1.85007 -0.31042,0.15408 -2.58733,-0.20259 -2.92788,-0.37653 -0.34055,-0.17394 -0.72325,-0.75172 -1.13092,-1.15366 -0.40766,-0.40194 -2.62344,0.35107 -2.62344,0.35107 0,0 -0.418,2.97206 -0.27689,3.88846 0.14111,0.9164 2.28289,9.06173 2.28289,9.06173 0,0 2.11937,4.76019 2.50034,5.51696 0.38099,0.75676 2.15496,8.05551 2.15496,8.05551 z"
           id="M3" />
        <path
           d="m 126.05788,202.91551 c 0,0 7.02874,-1.41818 7.43968,-2.02544 0.41094,-0.60727 1.646,-2.65043 2.11079,-2.76703 0.46478,-0.11659 6.14513,-1.25743 6.88778,-3.10159 0.74264,-1.84416 1.18391,-4.16347 0.92852,-5.25701 -0.2554,-1.09354 -1.84549,-5.64061 -1.66462,-6.48096 0,0 0,0 -1.03716,-0.31207 -1.03716,-0.31206 -4.23064,1.92096 -4.74648,2.10129 -0.51584,0.18033 -5.42082,2.37142 -5.42082,2.37142 0,0 -0.71118,4.29626 -0.93603,4.77938 -0.22485,0.48312 -2.95052,4.79895 -3.08882,5.33898 -0.13829,0.54002 -0.47284,5.35303 -0.47284,5.35303 z"
           id="M2" />
        <path
           d="m 117.0319,174.57085 c 0,0 0.8692,-0.72359 1.10504,-0.68968 0.23585,0.0339 1.57887,0.30284 1.68335,0.27711 0.10448,-0.0257 1.93408,-0.88722 2.04413,-1.02578 0.11005,-0.13856 3.34899,-3.57557 3.32787,-4.07164 -0.0211,-0.49607 -0.95872,-1.44036 -0.48133,-1.55643 0.4774,-0.11608 2.40632,-0.31013 2.61458,-0.47394 0.20825,-0.16381 1.85879,-1.81159 2.07537,-1.87809 0.21659,-0.0665 5.10475,0.11591 5.32562,0.29711 0.22086,0.18121 1.93329,2.55748 2.17091,2.71408 0.23763,0.15659 5.40403,2.75279 5.4957,3.18507 0.0917,0.43228 0.47836,4.85947 0.4318,5.18354 -0.0465,0.32406 -1.06491,6.75128 -1.06491,6.75128 0,0 0,0 -1.03716,-0.31207 -1.03716,-0.31206 -4.23064,1.92096 -4.74648,2.10129 -0.51584,0.18033 -5.42082,2.37142 -5.42082,2.37142 0,0 -7.58747,2.03808 -8.58244,0.25408 -0.99496,-1.784 -2.97821,-9.41863 -3.21127,-9.92077 -0.23306,-0.50214 -1.72996,-3.20658 -1.72996,-3.20658 z"
           id="M1" />
      </g>
      <g
         id="menthis_boundaries"
         class="boundaries">
        <path
           d="m 86.410357,190.65142 c 0,0 -1.763308,4.02973 -1.732052,4.91032 0.03126,0.8806 0.788405,2.5469 1.062408,2.82652 0.274002,0.27962 1.825762,0.77454 2.111017,1.037 0.285253,0.26247 2.612549,3.38664 2.790368,3.45011 0.177818,0.0635 4.815522,1.30922 6.467914,1.27073 1.652389,-0.0385 5.114258,0.77645 5.359948,0.64848 0.24568,-0.12797 1.25951,-0.49394 1.45719,-0.48346 0.19769,0.0105 2.26023,0.55267 2.64855,0.43594 0.38832,-0.11674 3.19526,-2.74375 3.51495,-2.6714 0.31969,0.0723 1.88824,0.69871 1.88824,0.69871"
           id="path19467" />
        <path
           d="m 105.31759,176.25171 c -0.70082,1.36854 -2.33352,2.05022 -3.02358,2.07556 -0.69007,0.0253 -2.981255,-1.59128 -4.058088,-2.03086 -1.07683,-0.43959 -3.367381,-0.15782 -3.777578,0.14787 -0.410199,0.30568 -0.900853,1.49656 -1.253982,1.56949 -0.353126,0.0729 -4.414213,0.37488 -4.835744,0.80168 -0.421532,0.42679 -1.315339,2.6284 -1.315334,3.04907 3e-6,0.42067 -0.370136,3.1235 -0.64875,3.62111 -0.278612,0.49761 -0.719879,1.00448 -0.779608,1.37763 -0.05973,0.37314 0.785431,3.78816 0.785431,3.78816"
           id="path19469" />
        <path
           d="m 111.97889,202.77437 c 0,0 -1.77397,-7.29875 -2.15496,-8.05551 -0.38097,-0.75677 -2.50034,-5.51696 -2.50034,-5.51696"
           id="path19471" />
        <path
           d="m 86.410357,190.65142 c 0,0 7.346476,-0.66648 8.379854,-0.60124 1.033378,0.0652 4.186105,0.3332 4.584031,0.27543 0.397925,-0.0578 7.949348,-1.12371 7.949348,-1.12371"
           id="path19473" />
        <path
           d="m 105.31759,176.25171 c 0,0 -0.418,2.97206 -0.27689,3.88846 0.14111,0.9164 2.28289,9.06173 2.28289,9.06173"
           id="path19475" />
        <path
           d="m 111.97889,202.77437 c 0,0 4.81838,0.98497 5.11081,1.20789 0.29243,0.22293 1.05281,0.64999 1.411,0.69874 0.35819,0.0488 3.33262,-0.69263 3.81427,-1.00661 0.48165,-0.31398 3.74291,-0.75888 3.74291,-0.75888"
           id="path19477" />
        <path
           d="m 130.55557,187.44412 c 0,0 -0.71118,4.29626 -0.93603,4.77938 -0.22485,0.48312 -2.95052,4.79895 -3.08882,5.33898 -0.13829,0.54002 -0.47284,5.35303 -0.47284,5.35303"
           id="path19479" />
        <path
           d="m 105.31759,176.25171 c 0,0 2.21578,-0.75301 2.62344,-0.35107 0.40767,0.40194 0.79037,0.97972 1.13092,1.15366 0.34055,0.17394 2.61746,0.53061 2.92788,0.37653 0.31043,-0.15409 0.98631,-1.83903 1.69983,-1.85007 0.71351,-0.011 1.99712,-0.0693 2.37961,-0.25902 0.38248,-0.18977 0.95263,-0.75089 0.95263,-0.75089"
           id="path19481" />
        <path
           d="m 130.55557,187.44412 c 0,0 -7.58747,2.03808 -8.58244,0.25408 -0.99496,-1.784 -2.97821,-9.41863 -3.21127,-9.92077 -0.23306,-0.50214 -1.72996,-3.20658 -1.72996,-3.20658"
           id="path19483" />
        <path
           d="m 126.05788,202.91551 c 0,0 7.02874,-1.41818 7.43968,-2.02544 0.41094,-0.60727 1.646,-2.65043 2.11079,-2.76703 0.46478,-0.11659 6.14513,-1.25743 6.88778,-3.10159 0.74264,-1.84416 1.18391,-4.16347 0.92852,-5.25701 -0.2554,-1.09354 -1.84549,-5.64061 -1.66462,-6.48096"
           id="path19485" />
        <path
           d="m 130.55557,187.44412 c 0,0 4.90498,-2.19109 5.42082,-2.37142 0.51584,-0.18033 3.70932,-2.41335 4.74648,-2.10129 1.03716,0.31207 1.03716,0.31207 1.03716,0.31207"
           id="path19487" />
        <path
           d="m 117.0319,174.57085 c 0,0 0.8692,-0.72359 1.10504,-0.68968 0.23585,0.0339 1.57887,0.30284 1.68335,0.27711 0.10448,-0.0257 1.93408,-0.88722 2.04413,-1.02578 0.11005,-0.13856 3.34899,-3.57557 3.32787,-4.07164 -0.0211,-0.49607 -0.95872,-1.44036 -0.48133,-1.55643 0.4774,-0.11608 2.40632,-0.31013 2.61458,-0.47394 0.20825,-0.16381 1.85879,-1.81159 2.07537,-1.87809 0.21659,-0.0665 5.10475,0.11591 5.32562,0.29711 0.22086,0.18121 1.93329,2.55748 2.17091,2.71408 0.23763,0.15659 5.40403,2.75279 5.4957,3.18507 0.0917,0.43228 0.47836,4.85947 0.4318,5.18354 -0.0465,0.32406 -1.06491,6.75128 -1.06491,6.75128"
           id="path19489" />
      </g>
    </g>
    <g
       id="cliffside">
      <g
         id="cliffside_districts"
         class="districts">
        <path
           d="m 51.002906,74.710784 c 0,0 -5.386324,8.056816 -5.726433,8.473831 -0.340109,0.417018 -4.779806,6.068399 -5.425527,6.502932 -0.645721,0.434531 -0.992344,1.77709 -1.236366,2.080506 -0.244026,0.303416 -4.332253,2.774138 -4.610267,3.296309 -0.278016,0.522168 -0.900724,5.535678 -1.159412,5.966538 -0.258691,0.43086 -1.347015,2.08385 -1.503863,2.27139 -0.156847,0.18753 -0.922186,1.54986 -0.883152,1.9163 0.03904,0.36644 0.241297,2.66005 0.0035,3.00455 -0.237746,0.3445 -1.236535,2.39901 -1.370751,2.99143 -0.134215,0.59242 -0.756745,4.6905 -0.899861,4.92097 -0.143115,0.23046 -2.257139,4.60275 -2.416648,4.92985 -0.159509,0.3271 -0.78239,4.0554 -1.930837,5.5319 -1.148447,1.4765 0.157616,1.27035 -0.266377,2.14027 -0.423992,0.86992 -1.544475,2.07576 -1.559491,2.44234 -0.01502,0.36659 1.082373,3.22762 1.007505,3.75097 -0.07487,0.52335 -0.337733,3.58971 -0.99892,4.59882 -0.661186,1.00911 -0.136469,5.71253 0.01913,6.66897 0.155603,0.95645 -0.918523,1.61454 -0.902087,2.64683 0.01644,1.03229 0.120848,2.84659 0.120848,2.84659 l 8.750923,-0.8732 c 0.315096,-7.78485 0.778778,-16.91411 0.972516,-17.64034 0.333677,-1.25079 5.701921,-8.50992 6.174687,-9.57668 0.472768,-1.06676 1.870217,-7.32625 2.471578,-8.33913 0.601361,-1.01287 5.085376,-16.922541 5.201076,-17.283882 0.1157,-0.361339 3.638908,-7.729982 3.737258,-8.046146 0.09835,-0.316161 0.318836,-3.580651 0.580911,-4.329448 0.262076,-0.7488 1.850258,-4.614736 1.850258,-4.614736 0,0 0.31396,-1.231051 -1.98e-4,-6.277732 z"
           id="grayflood" />
        <path
           id="sharnsWelcome"
           d="m 206.05273,267.38477 -13.28515,14.98632 c 1.18737,19.07407 0,23.72657 0,23.72657 0,0 -6.00167,14.61129 -6.99219,17.4414 -0.99052,2.8301 -1.82556,15.16834 -2.19727,16.36328 -0.37171,1.19495 -13.6877,29.04642 -14.125,30.41211 -0.43729,1.3657 -17.38338,61.49605 -19.65624,65.32422 -2.27287,3.82821 -7.55496,27.48573 -9.3418,31.51758 -1.78683,4.03185 -22.07675,31.46792 -23.33789,36.19531 -0.73224,2.74481 -2.48487,37.24882 -3.67578,66.67188 0,0 -2.15315,40.1272 -1.29102,45.66406 0.86214,5.53682 13.65196,57.60856 16.03125,62.22461 2.37929,4.61605 44.83542,75.11376 45.80078,78.04883 0.96537,2.9351 12.07422,36.8125 12.07422,36.8125 l 17.57422,-29.07617 c 0,0 -1.34931,-7.59653 -2.67969,-8.0918 -1.33038,-0.49527 -4.57276,0.023 -4.98242,-0.35156 -0.40966,-0.37493 -2.66119,-3.50342 -3.23242,-3.35352 -0.57123,0.15005 -5.3442,0.32114 -5.75391,0.008 -0.40971,-0.31256 -5.5405,-3.32122 -6.29492,-4.64843 -0.75442,-1.32722 -2.50638,-7.35073 -2.56836,-8.77735 -0.062,-1.42662 -0.5625,-6.86936 -0.73633,-7.52148 -0.17382,-0.65208 -2.48496,-8.25653 -2.86914,-8.70508 -0.38417,-0.44855 -5.58045,-6.96617 -5.99414,-8.69727 -0.4137,-1.73106 -4.16165,-20.66283 -4.63672,-21.62109 -0.47508,-0.95826 -4.2823,-8.91434 -5.09375,-9.5332 -0.81145,-0.61886 -8.41043,-9.34312 -8.49414,-10.00586 -0.0837,-0.66274 -1.12298,-7.74383 -1.40234,-8.2168 -0.27935,-0.47301 -6.24273,-8.49869 -6.51367,-9.39648 -0.27096,-0.89775 -0.97657,-15.23633 -0.97657,-15.23633 0,0 -1.88792,-22.45378 -2.10546,-23.61719 -0.21755,-1.16341 -7.07725,-3.32006 -8.06446,-3.67383 -0.9872,-0.35361 -1.71289,-9.29336 -1.71289,-10.79297 0,-1.4996 2.94142,-2.52123 3.89258,-3.3457 0.95114,-0.82447 0.0552,-7.70379 1.11914,-9.31641 1.06396,-1.61261 7.86672,-3.81753 9.31641,-4.72851 1.44968,-0.91098 -2.32183,-13.27787 -2.06055,-15.23438 0.26128,-1.95654 1.39641,-4.78569 5.98828,-15.3164 0,0 1.07749,-2.76763 0.008,-3.25391 -1.06977,-0.48627 -4.08928,-0.49562 -4.17968,-1.27734 -0.0904,-0.78176 -0.26853,-4.81188 -0.67579,-5.19531 -0.40725,-0.38348 -8.34528,-9.35511 -7.44531,-14.24805 0.89997,-4.89294 4.31693,-11.14457 4.29688,-12.18945 -0.02,-1.04493 -0.18777,-5.78593 0.25976,-6.51368 0.44753,-0.72778 5.28442,-4.79771 5.37305,-5.91797 0.0886,-1.12029 -0.33893,-19.1979 1.74609,-22.79492 2.08504,-3.59701 8.14864,-13.33888 8.06836,-15.36523 -0.0803,-2.02636 -2.55633,-10.85532 0.16406,-12.74414 2.72038,-1.88882 4.43017,-1.82338 4.61133,-2.90625 0.18116,-1.08287 1.32653,-10.05679 1.09375,-11.18555 -0.23278,-1.12876 -1.2378,-5.13618 -0.86914,-6.43555 0.3687,-1.2994 1.71315,-3.93746 1.66992,-4.92773 -0.0432,-0.99027 -1.44992,-12.44526 1.1211,-18.99024 2.57101,-6.54497 5.07668,-19.05407 8.87695,-21.43945 3.80028,-2.38541 3.58115,-2.81451 4.01953,-3.69922 0.43838,-0.88471 15.23716,-34.41084 15.67969,-34.66797 0.44253,-0.25712 3.74947,-3.02513 3.88477,-4.90234 0.1353,-1.87721 -1.65496,-8.2008 -0.95899,-10.52539 0.69596,-2.3246 4.55078,-12.51953 4.55078,-12.51953 0,0 2.09281,-15.23708 4.43946,-18.07422 2.34665,-2.83715 4.89264,-9.35788 5.04101,-10.80469 0.14839,-1.44681 -0.21732,-16.21476 -0.66211,-17.32226 -0.44478,-1.1075 -3.28292,-5.67288 -1.83594,-8.23828 z"
           transform="scale(0.26458333)" />
        <path
           d="m 49.227475,209.75482 c 2.588413,3.04183 4.491069,5.55662 5.982774,8.17698 1.491705,2.62035 3.87668,7.1234 4.642427,7.72472 0.765744,0.60132 7.649956,3.66526 8.027257,3.7738 0.377304,0.10854 3.462951,1.10769 3.462951,1.10769 2.597764,0.88355 4.830636,1.66408 5.37845,1.74474 0.547815,0.0807 6.58232,-0.92417 7.026759,-0.7928 0.444439,0.13136 3.094744,0.12665 3.380827,0.2608 0.286086,0.13415 3.629364,1.14527 4.434573,1.07688 0.805209,-0.0684 3.118549,-0.65148 3.753318,-0.92286 0.63477,-0.27139 6.365299,-1.39326 7.077289,-0.96831 0.71199,0.42494 3.10023,0.99924 3.70699,0.73369 0.60676,-0.26556 3.36485,-1.03609 3.36485,-1.03609 -3.06046,-0.46552 -8.96601,-1.60513 -8.96601,-1.60513 0,4e-5 -1.662057,-0.21215 -1.834306,-0.23545 -0.172252,-0.0232 -2.200344,0.2977 -2.442911,0.2712 -0.242567,-0.0265 -1.850178,-0.92836 -2.088666,-1.00636 -0.23849,-0.0781 -5.287375,0.004 -5.838163,-0.06 -0.550786,-0.0637 -5.725536,-1.45491 -5.878621,-1.54481 -0.153088,-0.0899 -5.712005,-0.33421 -5.904421,-0.38151 -0.192418,-0.0473 -2.426292,-2.79145 -2.578727,-2.91287 -0.152437,-0.12143 -4.668715,-0.7964 -4.958683,-0.96683 -0.28997,-0.17043 -1.653402,-1.5968 -1.824379,-1.6826 -0.170979,-0.0857 -1.247079,-0.0644 -1.461492,-0.11123 -0.21441,-0.0468 -5.640565,-5.37764 -6.367671,-5.86311 -0.727107,-0.48547 -4.768752,-7.79391 -5.079418,-8.41301 -0.31066,-0.6191 -0.45939,-0.78996 -0.36535,-4.06071 -3.214611,3.5733 -4.649647,7.69318 -4.649647,7.69318 z"
           id="mudCaves" />
        <path
           d="m 30.01482,150.81888 c 0,0 -0.569569,10.61701 -0.341464,12.08197 0.228108,1.46495 3.611872,15.24215 4.241393,16.46348 0.62952,1.22133 11.862514,19.87401 12.117932,20.65058 0.255419,0.77658 3.194794,9.73991 3.194794,9.73991 2.588413,3.04183 4.491069,5.55662 5.982774,8.17698 1.491705,2.62035 3.87668,7.1234 4.642427,7.72472 0.765744,0.60132 7.649956,3.66526 8.027257,3.7738 0.377304,0.10854 3.462951,1.10769 3.462951,1.10769 -4.259979,0.46507 -6.281899,2.57231 -9.086106,1.57127 -2.804205,-1.00104 -3.603609,-1.91482 -4.322747,-2.00578 -0.71914,-0.091 -4.004498,-1.05471 -4.402148,-1.81948 -0.39765,-0.76477 -1.536258,-3.21082 -1.86445,-3.40152 -0.328192,-0.19071 -5.579991,-4.55262 -6.038945,-5.9325 -0.458952,-1.37988 -0.212225,-2.92378 -1.038474,-3.56767 -0.826248,-0.64389 -3.161448,-1.20039 -3.688736,-2.54942 -0.527288,-1.34903 -1.564433,-4.06854 -1.086895,-4.9501 0.477539,-0.88157 1.250215,-1.96191 1.156523,-2.25226 -0.09369,-0.29036 -1.628058,-4.81261 -1.929196,-5.35408 -0.301141,-0.54148 -2.784528,-5.16617 -2.969117,-5.74823 -0.184587,-0.58206 -0.645311,-1.96342 -1.022303,-2.26403 -0.376989,-0.3006 -4.75788,-4.27346 -5.296236,-5.125 -0.538355,-0.85155 -2.579811,-3.88891 -2.590876,-4.70998 -0.01106,-0.82107 0.0032,-1.54724 -0.203404,-2.16736 -0.206613,-0.62013 -1.077624,-2.42097 -1.025211,-2.79835 0.05241,-0.37739 0.386736,-2.92862 0.305979,-3.40133 -0.08076,-0.4727 -0.537136,-4.01721 -0.759753,-4.4104 -0.222616,-0.3932 -1.149232,-2.18135 -1.125846,-2.57581 0.02339,-0.39447 0.216447,-2.74934 -1.79e-4,-3.10428 -0.216626,-0.35494 -3.744605,-5.30777 -3.529278,-6.86242 0.215328,-1.55465 0.695959,-4.35565 0.438464,-5.4172 z"
           id="shipsTowers" />
      </g>
      <g
         id="cliffside_boundaries"
         class="boundaries">
        <path
           d="m 71.342884,230.53801 c 2.597764,0.88355 4.830636,1.66408 5.37845,1.74474 0.547815,0.0807 6.58232,-0.92417 7.026759,-0.7928 0.444439,0.13136 3.094744,0.12665 3.380827,0.2608 0.286086,0.13415 3.629364,1.14527 4.434573,1.07688 0.805209,-0.0684 3.118549,-0.65148 3.753318,-0.92286 0.63477,-0.27139 6.365299,-1.39326 7.077289,-0.96831 0.71199,0.42494 3.10023,0.99924 3.70699,0.73369 0.60676,-0.26556 3.36485,-1.03609 3.36485,-1.03609"
           id="path24519" />
        <path
           d="m 109.46594,230.63406 c -3.06046,-0.46552 -8.96601,-1.60513 -8.96601,-1.60513"
           id="path592" />
        <path
           d="m 53.877122,202.06164 c -0.09404,3.27075 0.05469,3.44161 0.36535,4.06071 0.310666,0.6191 4.352311,7.92754 5.079418,8.41301 0.727106,0.48547 6.153261,5.81634 6.367671,5.86311 0.214413,0.0468 1.290513,0.0255 1.461492,0.11123 0.170977,0.0858 1.534409,1.51217 1.824379,1.6826 0.289968,0.17043 4.806246,0.8454 4.958683,0.96683 0.152435,0.12142 2.386309,2.86552 2.578727,2.91287 0.192416,0.0473 5.751333,0.29162 5.904421,0.38151 0.153085,0.0899 5.327835,1.48111 5.878621,1.54481 0.550788,0.0637 5.599673,-0.0181 5.838163,0.06 0.238488,0.078 1.846099,0.97986 2.088666,1.00636 0.242567,0.0265 2.270659,-0.29445 2.442911,-0.2712 0.172249,0.0233 1.834306,0.23549 1.834306,0.23549"
           id="path1279" />
        <path
           d="m 51.002906,74.710786 c 0.314158,5.046681 1.98e-4,6.277732 1.98e-4,6.277732 0,0 -1.588182,3.865936 -1.850258,4.614736 -0.262075,0.748797 -0.482563,4.013287 -0.580911,4.329448 -0.09835,0.316164 -3.621558,7.684807 -3.737258,8.046146 -0.1157,0.361341 -4.599715,16.271012 -5.201076,17.283882 -0.601361,1.01288 -1.99881,7.27237 -2.471578,8.33913 -0.472766,1.06676 -5.84101,8.32589 -6.174687,9.57668 -0.193738,0.72623 -0.65742,9.85549 -0.972516,17.64034"
           id="path4024" />
        <path
           d="m 53.877122,202.06164 c -3.214611,3.5733 -4.649647,7.69318 -4.649647,7.69318"
           id="path4459" />
        <path
           d="m 49.227475,209.75482 c 2.588413,3.04183 4.491069,5.55662 5.982774,8.17698 1.491705,2.62035 3.87668,7.1234 4.642427,7.72472 0.765744,0.60132 7.649956,3.66526 8.027257,3.7738 0.377304,0.10854 3.462951,1.10769 3.462951,1.10769"
           id="path4461" />
        <path
           d="m 51.002906,74.710784 c 0,0 -5.386324,8.056816 -5.726433,8.473831 -0.340109,0.417018 -4.779806,6.068399 -5.425527,6.502932 -0.645721,0.434531 -0.992344,1.77709 -1.236366,2.080506 -0.244026,0.303416 -4.332253,2.774138 -4.610267,3.296309 -0.278016,0.522168 -0.900724,5.535678 -1.159412,5.966538 -0.258691,0.43086 -1.347015,2.08385 -1.503863,2.27139 -0.156847,0.18753 -0.922186,1.54986 -0.883152,1.9163 0.03904,0.36644 0.241297,2.66005 0.0035,3.00455 -0.237746,0.3445 -1.236535,2.39901 -1.370751,2.99143 -0.134215,0.59242 -0.756745,4.6905 -0.899861,4.92097 -0.143115,0.23046 -2.257139,4.60275 -2.416648,4.92985 -0.159509,0.3271 -0.78239,4.0554 -1.930837,5.5319 -1.148447,1.4765 0.157616,1.27035 -0.266377,2.14027 -0.423992,0.86992 -1.544475,2.07576 -1.559491,2.44234 -0.01502,0.36659 1.082373,3.22762 1.007505,3.75097 -0.07487,0.52335 -0.337733,3.58971 -0.99892,4.59882 -0.661186,1.00911 -0.136469,5.71253 0.01913,6.66897 0.155603,0.95645 -0.918523,1.61454 -0.902087,2.64683 0.01644,1.03229 0.120848,2.84659 0.120848,2.84659"
           id="path5925" />
        <path
           d="m 71.342884,230.53801 c -4.259979,0.46507 -6.281899,2.57231 -9.086106,1.57127 -2.804205,-1.00104 -3.603609,-1.91482 -4.322747,-2.00578 -0.71914,-0.091 -4.004498,-1.05471 -4.402148,-1.81948 -0.39765,-0.76477 -1.536258,-3.21082 -1.86445,-3.40152 -0.328192,-0.19071 -5.579991,-4.55262 -6.038945,-5.9325 -0.458952,-1.37988 -0.212225,-2.92378 -1.038474,-3.56767 -0.826248,-0.64389 -3.161448,-1.20039 -3.688736,-2.54942 -0.527288,-1.34903 -1.564433,-4.06854 -1.086895,-4.9501 0.477539,-0.88157 1.250215,-1.96191 1.156523,-2.25226 -0.09369,-0.29036 -1.628058,-4.81261 -1.929196,-5.35408 -0.301141,-0.54148 -2.784528,-5.16617 -2.969117,-5.74823 -0.184587,-0.58206 -0.645311,-1.96342 -1.022303,-2.26403 -0.376989,-0.3006 -4.75788,-4.27346 -5.296236,-5.125 -0.538355,-0.85155 -2.579811,-3.88891 -2.590876,-4.70998 -0.01106,-0.82107 0.0032,-1.54724 -0.203404,-2.16736 -0.206613,-0.62013 -1.077624,-2.42097 -1.025211,-2.79835 0.05241,-0.37739 0.386736,-2.92862 0.305979,-3.40133 -0.08076,-0.4727 -0.537136,-4.01721 -0.759753,-4.4104 -0.222616,-0.3932 -1.149232,-2.18135 -1.125846,-2.57581 0.02339,-0.39447 0.216447,-2.74934 -1.79e-4,-3.10428 -0.216626,-0.35494 -3.744605,-5.30777 -3.529278,-6.86242 0.215328,-1.55465 0.695959,-4.35565 0.438464,-5.4172"
           id="path5923" />
        <path
           d="m 30.01482,150.81888 -8.750923,0.8732"
           id="path7632" />
        <path
           d="m 30.01482,150.81888 c 0,0 -0.569569,10.61701 -0.341464,12.08197 0.228108,1.46495 3.611872,15.24215 4.241393,16.46348 0.62952,1.22133 11.862514,19.87401 12.117932,20.65058 0.255419,0.77658 3.194794,9.73991 3.194794,9.73991"
           id="path12873" />
        <path
           d="m 51.002906,74.710784 3.515219,-3.965361"
           id="path14873" />
      </g>
    </g>
    <g
       id="dura">
      <g
         id="dura_districts"
         class="districts">
        <path
           d="m 70.131129,193.26895 c 0,0 -2.038267,-3.07075 -2.224352,-3.84349 -0.186086,-0.77274 -0.168883,-0.97728 -0.236921,-1.16727 -0.06803,-0.18999 -1.124259,-3.73186 -1.024374,-4.75496 0.09989,-1.02309 0.270743,-1.64961 0.228748,-1.82496 -0.04199,-0.17536 -0.68581,-1.61702 -0.697441,-2.10246 -0.01164,-0.48543 0.203766,-1.55069 0.139017,-1.85117 -0.06475,-0.30047 -0.692004,-3.60843 -0.767434,-3.88806 -0.07543,-0.27962 -0.950791,-2.24303 -0.962486,-2.51676 -0.01169,-0.27373 0.160126,-4.53391 0.758481,-5.34909 0,0 -5.801423,0.20524 -6.373082,0.24584 -0.571656,0.0406 -7.576587,-0.0251 -9.296432,-0.13689 -1.719844,-0.1118 -12.26217,3.13425 -12.26217,3.13425 l 32.718452,24.05502 c 0,0 -7.080393,2.0364 -8.191725,3.16721 -1.111335,1.13081 -8.062288,5.62548 -8.062288,5.62548 0,0 -0.356743,-2.01012 -0.708739,-2.14116 -0.351997,-0.13104 -1.209781,0.006 -1.31817,-0.0931 -0.10839,-0.0992 -0.704199,-0.92671 -0.855337,-0.88705 -0.151138,0.0397 -1.414264,0.0849 -1.522667,0.002 -0.108402,-0.0827 -1.465522,-0.87859 -1.665129,-1.22975 -0.199607,-0.35116 -0.66327,-1.94482 -0.679669,-2.32228 -0.0164,-0.37746 -0.14908,-1.81745 -0.195072,-1.98999 -0.04599,-0.17253 -0.657278,-2.18474 -0.758926,-2.30342 -0.101645,-0.11868 -1.476486,-1.84338 -1.585941,-2.3014 -0.109458,-0.45801 -1.10104,-5.46682 -1.226736,-5.72036 -0.125698,-0.25354 -1.133229,-2.35835 -1.347925,-2.52209 -0.214696,-0.16374 -2.22496,-2.47211 -2.247109,-2.64746 -0.02214,-0.17535 -0.297177,-2.04887 -0.371091,-2.17401 -0.07391,-0.12515 -1.651608,-2.24902 -1.723295,-2.48656 -0.07169,-0.23753 -0.258633,-4.03108 -0.258633,-4.03108 z"
           id="D7" />
        <path
           d="m 37.412683,169.21393 c 0,0 10.542326,-3.24605 12.26217,-3.13425 1.719845,0.11181 8.724776,0.17751 9.296432,0.13689 0.571659,-0.0406 6.373082,-0.24584 6.373082,-0.24584 0,0 0.911998,-1.26975 0.982292,-1.67211 0.0703,-0.40235 1.301592,-8.77676 1.291958,-9.32567 -0.0096,-0.54892 -0.372486,-6.93998 -0.518509,-7.46363 0,0 -11.601963,0.30526 -11.873783,0.26167 -0.271822,-0.0436 -3.181456,-0.52596 -3.181456,-0.52596 -0.751715,-0.1908 -12.945848,-0.79194 -12.945848,-0.79194 -1.214932,2.78625 -1.515205,3.53491 -1.584335,4.05258 -0.06913,0.51766 0.928719,3.7896 0.545158,4.03063 -0.383564,0.24103 -2.1838,0.82432 -2.465306,1.25099 -0.281506,0.42667 -0.04421,2.24714 -0.295865,2.46528 -0.251661,0.21814 -1.030073,0.4882 -1.030073,0.88497 0,0.39677 0.192122,2.76215 0.453319,2.85571 0.261199,0.0936 2.07623,0.6641 2.13379,0.97192 0.05756,0.30782 0.556974,6.24876 0.556974,6.24876 z"
           id="D6" />
        <path
           d="m 67.100108,147.50932 c 0,0 1.253307,-4.27706 1.301387,-4.80187 0.04808,-0.52481 0.123611,-2.48089 0.363765,-2.83113 0.240152,-0.35023 3.79257,-6.20391 4.15956,-6.52383 0.366988,-0.31993 6.096966,-4.43243 6.416355,-4.80483 0.319389,-0.37241 2.292694,-2.21652 2.250807,-2.8087 -0.04188,-0.59219 -0.307305,-1.44761 -0.126412,-1.78179 0.180893,-0.33418 1.125476,-1.29547 1.281546,-1.85132 0.15607,-0.55586 0.193884,-1.70178 0.603118,-1.83532 0.409234,-0.13355 2.310471,-0.60065 2.42515,-0.73907 0.114678,-0.1384 1.096798,-1.10726 1.330647,-1.59959 0.23385,-0.49233 1.54595,-3.19805 1.738405,-3.28461 -2e-6,0 -13.380931,-14.42644 -13.746162,-14.843385 -0.365231,-0.416941 -4.05257,-2.176899 -4.05257,-2.176899 -3.724971,4.024834 -10.96632,20.584324 -11.510732,22.056734 -0.544409,1.47241 -1.573255,13.42653 -3.226657,17.08855 -1.6534,3.66202 -4.263446,10.47277 -4.263446,10.47277 l 15.055239,0.26429 c 0,0 -11.601963,0.30526 -11.873783,0.26167 -0.271822,-0.0436 -3.181456,-0.52596 -3.181456,-0.52596 z"
           id="D5" />
        <path
           d="m 88.844434,114.64726 c 1.83615,-2.58692 2.018331,-2.73675 1.997466,-3.03229 -0.02087,-0.29555 -0.137903,-1.59108 -0.04771,-1.86723 0.09019,-0.27615 0.502602,-0.98196 0.430628,-1.3097 -0.07197,-0.32774 -0.645721,-1.76391 -0.501243,-2.04814 0.144478,-0.28424 0.939403,-0.94261 0.999712,-1.07622 0.06031,-0.13362 1.398323,-2.56164 1.540396,-3.02819 0.142074,-0.46656 0.467379,-2.01813 0.704411,-2.15226 0.237032,-0.134138 1.335694,-0.934449 1.417302,-1.100499 0.08161,-0.16605 1.089062,-1.864037 0.664514,-2.247143 -0.42455,-0.383104 -1.727335,-0.551654 -1.668097,-0.805411 0.05923,-0.253754 0.911082,-2.941388 0.911082,-3.196809 0,-0.255418 -0.271868,-1.355588 -0.144415,-1.597594 0.127452,-0.242004 1.424077,-4.47076 2.060784,-4.761357 0.636709,-0.290595 2.079331,-0.815099 2.459831,-1.208019 0.380505,-0.392922 0.813755,-1.091059 0.861975,-1.25653 0.0482,-0.16547 0.30367,-1.299593 0.17843,-1.51444 -0.12524,-0.214847 -0.822073,-0.889992 -0.60267,-1.063117 0.21941,-0.173122 3.22583,-1.902169 3.30946,-2.070177 0.0836,-0.168005 2.60402,-2.978346 3.60501,-3.098149 1.00098,-0.119806 3.37929,-0.336862 3.59868,-0.530974 0.21938,-0.194109 1.52907,-1.707166 1.20296,-2.136521 -0.32612,-0.429352 -1.19437,-0.592169 -0.98126,-1.028988 0.21311,-0.436819 1.96096,-1.989455 1.96096,-1.989455 -5.68563,-1.358903 -12.56448,-2.603214 -13.504776,-2.570165 -0.9403,0.03305 -7.281174,-0.01799 -8.458046,0.252703 -1.176869,0.270693 -4.823063,1.024861 -4.823063,1.024861 0.296757,7.235574 -14.971051,28.39153 -14.971051,28.39153 0,0 3.687339,1.759958 4.05257,2.176899 0.365231,0.416945 13.74616,14.843385 13.74616,14.843385 z"
           id="D4" />
        <path
           d="m 112.80264,70.528049 c -5.68563,-1.358905 -12.56448,-2.603216 -13.504776,-2.570167 -0.9403,0.03305 -7.281174,-0.01799 -8.458046,0.252703 -1.176869,0.270693 -4.823063,1.024861 -4.823063,1.024861 -0.422114,-10.00425 -6.503006,-16.87246 -6.503006,-16.87246 3.954195,-3.427706 9.894792,-4.918509 12.975548,-5.127596 3.080755,-0.209087 11.107733,2.907863 11.575033,3.23265 0.46729,0.324789 1.67286,-2.20784 2.21933,-2.384012 0.54647,-0.176173 22.84972,2.971958 23.32371,3.021078 0.47399,0.04912 2.81363,0.661056 2.69812,0.921814 -0.11551,0.260755 -3.09785,2.81392 -3.3326,3.168944 -0.23475,0.355023 0.64843,0.413361 0.56143,1.173387 -0.087,0.760026 -3.48679,-0.320259 -3.66592,-0.397629 -0.17913,-0.07737 -3.53761,2.975734 -3.73212,3.368868 -0.19451,0.393134 0.91887,1.343533 0.10591,1.995858 -0.81296,0.652322 -2.75253,4.307819 -2.84583,4.515331 -0.0933,0.207516 -1.18039,0.833075 -2.04645,0.965005 -0.86606,0.131929 -1.48616,2.339392 -1.66212,2.697805 -0.17598,0.358415 -1.21065,0.965523 -1.62407,1.175898 -0.41343,0.210376 -1.26108,-0.16234 -1.26108,-0.16234 z"
           id="D3" />
        <path
           d="m 52.670834,85.149144 c 0,0 0.553331,-4.031255 1.174215,-4.781915 0.620885,-0.750663 1.294956,-2.4759 1.334212,-2.858701 0.03926,-0.382802 -0.05747,-4.290367 -0.175154,-4.583393 -0.117682,-0.293024 -0.868831,-1.50095 -0.485982,-2.179712 0.382847,-0.678759 1.263669,-1.957599 1.312384,-2.421612 0.04871,-0.464016 0.08064,-5.637662 1.14523,-6.778011 1.064591,-1.140349 4.059333,-4.304612 4.046591,-4.914392 -0.01275,-0.609783 -0.523267,-2.913441 -0.263144,-3.283823 0.260125,-0.37038 1.917716,-2.406637 2.060861,-2.885869 0.143144,-0.479229 2.085257,-4.761251 1.719524,-5.927963 -0.365731,-1.166709 -2.75967,-5.54106 -2.226749,-6.057172 6.185222,2.227379 9.148355,4.087842 10.377051,5.410171 1.228695,1.322329 6.823876,8.476234 6.823876,8.476234 0,0 6.080892,6.86821 6.503006,16.87246 0.296757,7.235574 -14.971051,28.39153 -14.971051,28.39153 0,0 -7.589517,-6.438347 -8.512709,-7.190274 -0.923195,-0.75193 -9.862161,-5.287558 -9.862161,-5.287558 z"
           id="D2" />
        <path
           d="m 39.099021,146.45309 c 0,0 12.194133,0.60114 12.945848,0.79194 0,0 2.610046,-6.81075 4.263446,-10.47277 1.653402,-3.66202 2.682248,-15.61614 3.226657,-17.08855 0.544412,-1.47241 7.785761,-18.0319 11.510732,-22.056732 0,-2e-6 -7.589517,-6.438349 -8.512709,-7.190276 -0.923195,-0.75193 -9.862161,-5.287558 -9.862161,-5.287558 0,0 -1.020032,2.69766 -1.204171,3.31271 -0.184143,0.615048 0.289546,2.288064 0.253746,2.784742 -0.0358,0.496679 -0.910879,1.228852 -1.027965,1.296882 -0.117086,0.06803 -4.032395,8.938492 -4.148383,9.172572 -0.115988,0.23408 -0.05812,0.34787 -1.06361,0.97901 -1.005488,0.63113 -1.668597,3.94062 -2.348843,5.67231 -0.680249,1.73169 -0.308052,4.7625 -0.296622,5.02451 0.01144,0.26201 -0.344138,0.96012 -0.441688,1.30392 -0.09754,0.34379 0.168381,1.40421 0.229971,1.70286 0.06159,0.29865 -0.241683,2.67288 -0.289613,2.95939 -0.04793,0.28651 -0.50016,0.26936 -1.219927,0.76911 -0.719771,0.49975 -0.06476,2.83552 -0.04351,3.37166 0.02124,0.53614 -1.582943,3.11396 -2.134608,4.06567 -0.551662,0.95171 -0.438482,5.73454 -0.461922,6.03095 -0.02345,0.2964 -1.303134,1.37315 -1.421543,1.56571 -0.11841,0.19255 -0.07436,1.44725 -0.06906,1.72372 0.0053,0.27646 -0.898776,1.9303 -1.136893,3.22489 -0.238117,1.29459 1.862201,3.66826 1.969955,3.76972 0.107753,0.10145 0.154983,1.16776 0.178903,1.3746 0.02392,0.20683 0.823027,0.20922 1.10607,0.33788 0.283018,0.12866 -0.0021,0.86113 -0.0021,0.86113 z"
           id="D1" />
      </g>
      <g
         id="dura_boundaries"
         class="boundaries">
        <path
           d="m 53.877122,202.06164 c 0,0 -0.356743,-2.01012 -0.708739,-2.14116 -0.351997,-0.13104 -1.209781,0.006 -1.31817,-0.0931 -0.10839,-0.0992 -0.704199,-0.92671 -0.855337,-0.88705 -0.151138,0.0397 -1.414264,0.0849 -1.522667,0.002 -0.108402,-0.0827 -1.465522,-0.87859 -1.665129,-1.22975 -0.199607,-0.35116 -0.66327,-1.94482 -0.679669,-2.32228 -0.0164,-0.37746 -0.14908,-1.81745 -0.195072,-1.98999 -0.04599,-0.17253 -0.657278,-2.18474 -0.758926,-2.30342 -0.101645,-0.11868 -1.476486,-1.84338 -1.585941,-2.3014 -0.109458,-0.45801 -1.10104,-5.46682 -1.226736,-5.72036 -0.125698,-0.25354 -1.133229,-2.35835 -1.347925,-2.52209 -0.214696,-0.16374 -2.22496,-2.47211 -2.247109,-2.64746 -0.02214,-0.17535 -0.297177,-2.04887 -0.371091,-2.17401 -0.07391,-0.12515 -1.651608,-2.24902 -1.723295,-2.48656 -0.07169,-0.23753 -0.258633,-4.03108 -0.258633,-4.03108"
           id="path20303" />
        <path
           d="m 70.131129,193.26895 c 0,0 -2.038267,-3.07075 -2.224352,-3.84349 -0.186086,-0.77274 -0.168883,-0.97728 -0.236921,-1.16727 -0.06803,-0.18999 -1.124259,-3.73186 -1.024374,-4.75496 0.09989,-1.02309 0.270743,-1.64961 0.228748,-1.82496 -0.04199,-0.17536 -0.68581,-1.61702 -0.697441,-2.10246 -0.01164,-0.48543 0.203766,-1.55069 0.139017,-1.85117 -0.06475,-0.30047 -0.692004,-3.60843 -0.767434,-3.88806 -0.07543,-0.27962 -0.950791,-2.24303 -0.962486,-2.51676 -0.01169,-0.27373 0.160126,-4.53391 0.758481,-5.34909"
           id="path20305" />
        <path
           d="m 37.412683,169.21393 c 0,0 10.542326,-3.24605 12.26217,-3.13425 1.719845,0.11181 8.724776,0.17751 9.296432,0.13689 0.571659,-0.0406 6.373082,-0.24584 6.373082,-0.24584"
           id="path20307" />
        <path
           d="m 39.099021,146.45309 c -1.214932,2.78625 -1.515205,3.53491 -1.584335,4.05258 -0.06913,0.51766 0.928719,3.7896 0.545158,4.03063 -0.383564,0.24103 -2.1838,0.82432 -2.465306,1.25099 -0.281506,0.42667 -0.04421,2.24714 -0.295865,2.46528 -0.251661,0.21814 -1.030073,0.4882 -1.030073,0.88497 0,0.39677 0.192122,2.76215 0.453319,2.85571 0.261199,0.0936 2.07623,0.6641 2.13379,0.97192 0.05756,0.30782 0.556974,6.24876 0.556974,6.24876"
           id="path20309" />
        <path
           d="m 65.344367,165.97073 c 0,0 0.911998,-1.26975 0.982292,-1.67211 0.0703,-0.40235 1.301592,-8.77676 1.291958,-9.32567 -0.0096,-0.54892 -0.372486,-6.93998 -0.518509,-7.46363"
           id="path20311" />
        <path
           d="m 39.099021,146.45309 c 0,0 12.194133,0.60114 12.945848,0.79194"
           id="path20313" />
        <path
           d="m 67.100108,147.50932 c 0,0 -11.601963,0.30526 -11.873783,0.26167 -0.271822,-0.0436 -3.181456,-0.52596 -3.181456,-0.52596"
           id="path20315" />
        <path
           d="m 39.099021,146.45309 c 0,0 0.285118,-0.73247 0.0021,-0.86113 -0.283043,-0.12866 -1.082151,-0.13105 -1.10607,-0.33788 -0.02392,-0.20684 -0.07115,-1.27315 -0.178903,-1.3746 -0.107754,-0.10146 -2.208072,-2.47513 -1.969955,-3.76972 0.238117,-1.29459 1.142198,-2.94843 1.136893,-3.22489 -0.0053,-0.27647 -0.04935,-1.53117 0.06906,-1.72372 0.118409,-0.19256 1.398093,-1.26931 1.421543,-1.56571 0.02344,-0.29641 -0.08974,-5.07924 0.461922,-6.03095 0.551665,-0.95171 2.155849,-3.52953 2.134608,-4.06567 -0.02125,-0.53614 -0.676261,-2.87191 0.04351,-3.37166 0.719767,-0.49975 1.171993,-0.4826 1.219927,-0.76911 0.04793,-0.28651 0.351203,-2.66074 0.289613,-2.95939 -0.06159,-0.29865 -0.327514,-1.35907 -0.229971,-1.70286 0.09755,-0.3438 0.453126,-1.04191 0.441688,-1.30392 -0.01143,-0.26201 -0.383627,-3.29282 0.296622,-5.02451 0.680246,-1.73169 1.343355,-5.04118 2.348843,-5.67231 1.005491,-0.63114 0.947622,-0.74493 1.06361,-0.97901 0.115988,-0.23408 4.031297,-9.10454 4.148383,-9.172572 0.117086,-0.06803 0.992169,-0.800203 1.027965,-1.296882 0.0358,-0.496678 -0.437889,-2.169694 -0.253746,-2.784742 0.184139,-0.61505 1.204171,-3.31271 1.204171,-3.31271"
           id="path20317" />
        <path
           d="m 52.044869,147.24503 c 0,0 2.610046,-6.81075 4.263446,-10.47277 1.653402,-3.66202 2.682248,-15.61614 3.226657,-17.08855 0.544412,-1.47241 7.785761,-18.0319 11.510732,-22.056732"
           id="path20319" />
        <path
           d="m 52.670834,85.149144 c 0,0 8.938966,4.535628 9.862161,5.287558 0.923192,0.751927 8.512709,7.190274 8.512709,7.190274"
           id="path20321" />
        <path
           d="m 67.100108,147.50932 c 0,0 1.253307,-4.27706 1.301387,-4.80187 0.04808,-0.52481 0.123611,-2.48089 0.363765,-2.83113 0.240152,-0.35023 3.79257,-6.20391 4.15956,-6.52383 0.366988,-0.31993 6.096966,-4.43243 6.416355,-4.80483 0.319389,-0.37241 2.292694,-2.21652 2.250807,-2.8087 -0.04188,-0.59219 -0.307305,-1.44761 -0.126412,-1.78179 0.180893,-0.33418 1.125476,-1.29547 1.281546,-1.85132 0.15607,-0.55586 0.193884,-1.70178 0.603118,-1.83532 0.409234,-0.13355 2.310471,-0.60065 2.42515,-0.73907 0.114678,-0.1384 1.096798,-1.10726 1.330647,-1.59959 0.23385,-0.49233 1.54595,-3.19805 1.738405,-3.28461"
           id="path20323" />
        <path
           d="m 71.045704,97.626976 c 0,0 3.687339,1.759958 4.05257,2.176899 0.365231,0.416945 13.74616,14.843385 13.74616,14.843385"
           id="path20325" />
        <path
           d="m 54.518125,70.745423 c 0.382847,-0.678759 1.263669,-1.957599 1.312384,-2.421612 0.04871,-0.464016 0.08064,-5.637662 1.14523,-6.778011 1.064591,-1.140349 4.059333,-4.304612 4.046591,-4.914392 -0.01275,-0.609783 -0.523267,-2.913441 -0.263144,-3.283823 0.260125,-0.37038 1.917716,-2.406637 2.060861,-2.885869 0.143144,-0.479229 2.085257,-4.761251 1.719524,-5.927963 -0.365731,-1.166709 -2.75967,-5.54106 -2.226749,-6.057172"
           id="path15713" />
        <path
           d="m 52.670834,85.149144 c 0,0 0.553331,-4.031255 1.174215,-4.781915 0.620885,-0.750663 1.294956,-2.4759 1.334212,-2.858701 0.03926,-0.382802 -0.05747,-4.290367 -0.175154,-4.583393 -0.117682,-0.293024 -0.868831,-1.50095 -0.485982,-2.179712"
           id="path20327" />
        <path
           d="m 71.045704,97.626976 c 0,0 15.267808,-21.155956 14.971051,-28.39153"
           id="path20329" />
        <path
           d="m 112.80264,70.528049 c -5.68563,-1.358905 -12.56448,-2.603216 -13.504776,-2.570167 -0.9403,0.03305 -7.281174,-0.01799 -8.458046,0.252703 -1.176869,0.270693 -4.823063,1.024861 -4.823063,1.024861"
           id="path20333" />
        <path
           d="m 88.844434,114.64726 c 1.83615,-2.58692 2.018331,-2.73675 1.997466,-3.03229 -0.02087,-0.29555 -0.137903,-1.59108 -0.04771,-1.86723 0.09019,-0.27615 0.502602,-0.98196 0.430628,-1.3097 -0.07197,-0.32774 -0.645721,-1.76391 -0.501243,-2.04814 0.144478,-0.28424 0.939403,-0.94261 0.999712,-1.07622 0.06031,-0.13362 1.398323,-2.56164 1.540396,-3.02819 0.142074,-0.46656 0.467379,-2.01813 0.704411,-2.15226 0.237032,-0.134138 1.335694,-0.934449 1.417302,-1.100499 0.08161,-0.16605 1.089062,-1.864037 0.664514,-2.247143 -0.42455,-0.383104 -1.727335,-0.551654 -1.668097,-0.805411 0.05923,-0.253754 0.911082,-2.941388 0.911082,-3.196809 0,-0.255418 -0.271868,-1.355588 -0.144415,-1.597594 0.127452,-0.242004 1.424077,-4.47076 2.060784,-4.761357 0.636709,-0.290595 2.079331,-0.815099 2.459831,-1.208019 0.380505,-0.392922 0.813755,-1.091059 0.861975,-1.25653 0.0482,-0.16547 0.30367,-1.299593 0.17843,-1.51444 -0.12524,-0.214847 -0.822073,-0.889992 -0.60267,-1.063117 0.21941,-0.173122 3.22583,-1.902169 3.30946,-2.070177 0.0836,-0.168005 2.60402,-2.978346 3.60501,-3.098149 1.00098,-0.119806 3.37929,-0.336862 3.59868,-0.530974 0.21938,-0.194109 1.52907,-1.707166 1.20296,-2.136521 -0.32612,-0.429352 -1.19437,-0.592169 -0.98126,-1.028988 0.21311,-0.436819 1.96096,-1.989455 1.96096,-1.989455"
           id="path20335" />
        <path
           d="m 112.80264,70.528047 c 0,0 0.84765,0.372716 1.26108,0.16234 0.41342,-0.210375 1.44809,-0.817483 1.62407,-1.175898 0.17596,-0.358413 0.79606,-2.565876 1.66212,-2.697805 0.86606,-0.13193 1.95314,-0.757489 2.04645,-0.965005 0.0933,-0.207512 2.03287,-3.863009 2.84583,-4.515331 0.81296,-0.652325 -0.30042,-1.602724 -0.10591,-1.995858 0.19451,-0.393134 3.55299,-3.446238 3.73212,-3.368868 0.17913,0.07737 3.57888,1.157655 3.66592,0.397629 0.087,-0.760026 -0.79618,-0.818364 -0.56143,-1.173387 0.23475,-0.355024 3.21709,-2.908189 3.3326,-3.168944 0.11551,-0.260758 -2.22413,-0.872694 -2.69812,-0.921814 -0.47399,-0.04912 -22.77724,-3.197251 -23.32371,-3.021078 -0.54647,0.176172 -1.75204,2.708801 -2.21933,2.384012 -0.4673,-0.324787 -8.494278,-3.441737 -11.575033,-3.23265 -3.080756,0.209087 -9.021353,1.69989 -12.975548,5.127596"
           id="path20530" />
        <path
           d="m 62.312822,38.476581 c 6.185222,2.227379 9.148355,4.087842 10.377051,5.410171 1.228695,1.322329 6.823876,8.476234 6.823876,8.476234"
           id="path20532" />
        <path
           d="M 86.016755,69.235446 C 85.594641,59.231196 79.513749,52.362986 79.513749,52.362986"
           id="path20534" />
      </g>
    </g>
    <g
       id="tavicks">
      <g
         id="tavicks_districts"
         class="districts">
        <path
           d="m 101.52073,218.16395 c 0,0 -9.622277,-0.21554 -10.714083,-0.68448 -1.091803,-0.46894 -6.908085,-3.43658 -7.217375,-3.97274 -0.309288,-0.53615 -3.311621,-4.84578 -3.65914,-5.01157 -0.34752,-0.16579 -4.076123,-2.86785 -4.426143,-3.0296 -0.35002,-0.16174 -2.699729,-1.21798 -2.820207,-1.43153 -0.120476,-0.21355 -2.673448,-5.87772 -2.621812,-6.6257 0.05163,-0.74799 0.06916,-4.13938 0.06916,-4.13938 5e-6,0 -7.080388,2.0364 -8.19172,3.16721 -1.111335,1.13081 -8.062288,5.62548 -8.062288,5.62548 -0.09404,3.27075 0.05469,3.44161 0.36535,4.06071 0.310666,0.6191 4.352311,7.92754 5.079418,8.41301 0.727106,0.48547 6.153261,5.81634 6.367671,5.86311 0.214413,0.0468 1.290513,0.0255 1.461492,0.11123 0.170977,0.0858 1.534409,1.51217 1.824379,1.6826 0.289968,0.17043 4.806246,0.8454 4.958683,0.96683 0.152435,0.12142 2.386309,2.86552 2.578727,2.91287 0.192416,0.0473 5.751333,0.29162 5.904421,0.38151 0.153085,0.0899 5.327835,1.48111 5.878621,1.54481 0.550788,0.0637 5.599673,-0.0181 5.838163,0.06 0.238488,0.078 1.846099,0.97986 2.088666,1.00636 0.242567,0.0265 2.270659,-0.29445 2.442911,-0.2712 0.172249,0.0233 1.834306,0.23549 1.834306,0.23549 0,-4e-5 -0.025,-0.0608 0.0532,-4.07935 0.0782,-4.01857 0.9676,-6.78567 0.9676,-6.78567 z"
           id="T7" />
        <path
           d="m 101.52073,218.16395 c 0,0 5.48362,0.0932 10.90869,-0.36073 5.42507,-0.45397 8.10311,1.03164 9.81381,0.5164 1.71071,-0.51524 5.23397,-1.70682 5.6744,-2.52468 0.44043,-0.81786 0.66596,-1.97344 1.17506,-2.21466 0.50911,-0.24121 4.27567,-0.96559 4.56498,-1.24814 0.28932,-0.28256 0.515,-0.47483 0.66752,-0.52139 0.15252,-0.0466 2.31398,0.3077 2.41604,0.38853 0.10206,0.0808 4.17998,1.77144 4.57721,1.78063 0.39723,0.009 3.34664,-0.47404 3.50008,-0.65029 0.15344,-0.17626 1.75611,-2.38211 1.75611,-2.38211 0,0 7.20847,9.97093 7.86337,10.52771 0.6549,0.55678 3.4832,3.67305 3.4832,3.67305 0,0 -5.42631,1.65077 -15.45961,3.09951 -10.03329,1.44874 -8.08073,1.5944 -10.26551,2.92574 -2.18479,1.33135 -3.65532,1.64101 -4.85106,0.71739 -1.19574,-0.92363 -2.34731,-2.42241 -2.8161,-2.38348 -0.4688,0.0389 -7.95746,0.20033 -8.64643,0.40289 -0.68896,0.20256 -3.35608,1.18925 -6.41655,0.72374 -3.06046,-0.46552 -8.96601,-1.60513 -8.96601,-1.60513 0,0 -0.025,-0.0607 0.0532,-4.07931 0.0782,-4.01857 0.9676,-6.78567 0.9676,-6.78567 z"
           id="T6" />
        <path
           d="m 146.57463,210.94751 c 0,0 5.38296,-3.2688 5.70341,-5.48887 0.32045,-2.22007 -4.06433,-6.83245 -1.14322,-5.79888 2.92111,1.03357 4.23412,2.31035 4.92016,1.77953 0.68604,-0.53082 2.13851,-3.48661 2.1987,-3.88196 0.0602,-0.39534 0.48812,-3.15303 0.48812,-3.15303 0,0 3.93951,1.95745 4.57066,2.38376 0.63116,0.4263 6.86508,2.10615 9.32806,2.09715 2.46298,-0.009 14.67401,6.40509 14.67401,6.40509 0,0 -3.43643,8.48378 -4.89787,9.76622 -1.46145,1.28243 -5.0001,0.12152 -6.70678,0.65567 -1.70668,0.53415 -7.28568,3.61914 -7.99031,4.27144 -0.70463,0.65229 -0.57696,2.54345 -1.26981,3.02417 -0.69285,0.48071 -5.90443,0.84908 -6.59083,1.11457 -0.6864,0.26551 -1.93773,1.0259 -1.93773,1.0259 0,0 -2.8283,-3.11627 -3.4832,-3.67305 -0.6549,-0.55678 -7.86337,-10.52771 -7.86337,-10.52771 z"
           id="T5" />
        <path
           d="m 158.7418,194.4043 c 0,0 0.18263,-4.99988 0.81791,-6.76449 0.63527,-1.76459 1.20037,-4.82062 0.34876,-6.14405 0,2e-5 1.53595,-0.77008 2.73564,-1.10157 1.19969,-0.33148 10.30889,0.27428 13.99607,0.55793 3.68719,0.28365 10.87269,-2.77173 13.30467,-4.06208 2.432,-1.29037 9.26318,0.0766 9.26318,0.0766 L 158.7418,194.4043 c 0,0 3.93951,1.95745 4.57066,2.38376 0.63116,0.4263 6.86508,2.10615 9.32806,2.09715 2.46298,-0.009 14.67401,6.40509 14.67401,6.40509 0,0 4.11085,-8.85911 5.64027,-10.13229 1.52942,-1.27318 3.91312,-5.37364 4.28909,-6.6479 0.37598,-1.27426 1.96414,-11.54347 1.96414,-11.54347 z"
           id="T4" />
        <path
           d="m 199.20803,176.96664 c 0,0 -3.45369,-15.2121 -3.00433,-16.56487 0.44936,-1.35276 2.95097,-5.53857 2.95097,-5.53857 0,0 -8.22279,0.0694 -9.34913,0.49493 -1.12635,0.42551 -2.17465,1.04237 -2.55471,1.07544 -0.38006,0.0331 -7.77421,0.0568 -7.77421,0.0568 0,-3e-5 -14.14908,0.27583 -14.85966,0.26013 -0.71058,-0.0157 -2.90535,0.68161 -3.36181,0.77841 -0.45646,0.0968 -5.93914,-1.29878 -6.58654,-1.36878 -0.64739,-0.07 -6.86799,2.28676 -6.86799,2.28676 l 51.40741,18.51975 c 0,0 -6.83118,-1.36697 -9.26318,-0.0766 -2.43198,1.29035 -9.61748,4.34573 -13.30467,4.06208 -3.68718,-0.28365 -12.79638,-0.88941 -13.99607,-0.55793 -1.19969,0.33149 -2.73564,1.10159 -2.73564,1.10159 1e-5,-1e-5 -0.95555,-1.29652 -1.27158,-1.88108 -0.31602,-0.58456 -4.12577,-4.63738 -4.67989,-5.14843 -0.55411,-0.51106 -1.26921,-7.19101 -1.27971,-7.96939 -0.0105,-0.77838 -3.28834,-4.79805 -3.80245,-5.25938 -0.51411,-0.46133 -1.07422,-2.79061 -1.07422,-2.79061 z"
           id="T3" />
        <path
           d="m 199.15467,154.8632 c 0,0 1.1512,-3.50749 1.02368,-4.29393 -0.12752,-0.78645 -1.67908,-8.03127 -1.32982,-9.62304 0.34926,-1.59177 1.29493,-6.62672 0.83236,-7.58631 -0.46258,-0.9596 -2.61791,-7.92013 -3.0606,-8.17052 -0.44268,-0.25039 -8.2094,-6.54629 -9.79655,-6.00628 -1.58714,0.54001 -4.00041,1.37359 -4.63068,1.9008 -0.63027,0.52721 -4.35291,2.20946 -4.35291,2.20946 0,0 0.35205,12.30026 0.63201,13.13515 0.27996,0.8349 1.34672,7.52016 1.98001,9.58302 0.63329,2.06288 -0.97555,10.47879 -0.97555,10.47879 0,3e-5 7.39415,-0.0237 7.77421,-0.0568 0.38006,-0.0331 1.42836,-0.64993 2.55471,-1.07544 1.12634,-0.42553 9.34913,-0.49493 9.34913,-0.49493 z"
           id="T2" />
        <path
           d="m 147.80062,158.44689 c 0,0 -1.32742,-8.00523 -0.005,-9.14197 1.32195,-1.13674 3.68745,-2.22924 3.62424,-2.85022 -0.0632,-0.62097 -2.30691,-2.73618 -2.02841,-3.52358 0.2785,-0.7874 0.56601,-1.97427 0.74122,-2.32706 0.1752,-0.35278 3.94366,-7.04813 3.94779,-7.14456 0.004,-0.0964 0.72938,-2.10769 1.13933,-2.38173 0.40994,-0.27403 1.6712,-0.60272 1.91184,-0.80116 0.24065,-0.19844 1.64446,-1.63193 1.76046,-1.63193 0.116,0 1.11022,0.21202 1.45014,0.0928 0.33992,-0.11923 4.70466,-2.26591 5.69931,-1.98076 0.99465,0.28516 2.79304,0.99105 3.9868,-0.0978 1.19376,-1.08891 4.97458,-3.19944 7.81181,-3.36554 0,0 0.35205,12.30026 0.63201,13.13515 0.27996,0.8349 1.34672,7.52016 1.98001,9.58302 0.63329,2.06288 -0.97555,10.47879 -0.97555,10.47879 0,0 -14.14908,0.27586 -14.85966,0.26016 -0.71058,-0.0157 -2.90535,0.68161 -3.36181,0.77841 -0.45646,0.0968 -5.93914,-1.29878 -6.58654,-1.36878 -0.64739,-0.07 -6.86799,2.28676 -6.86799,2.28676 z"
           id="T1" />
      </g>
      <g
         id="tavicks_boundaries"
         class="boundaries">
        <path
           d="m 101.52073,218.16395 c 0,0 -9.622277,-0.21554 -10.714083,-0.68448 -1.091803,-0.46894 -6.908085,-3.43658 -7.217375,-3.97274 -0.309288,-0.53615 -3.311621,-4.84578 -3.65914,-5.01157 -0.34752,-0.16579 -4.076123,-2.86785 -4.426143,-3.0296 -0.35002,-0.16174 -2.699729,-1.21798 -2.820207,-1.43153 -0.120476,-0.21355 -2.673448,-5.87772 -2.621812,-6.6257 0.05163,-0.74799 0.06916,-4.13938 0.06916,-4.13938"
           id="path20300" />
        <path
           d="m 53.877122,202.06164 c -0.09404,3.27075 0.05469,3.44161 0.36535,4.06071 0.310666,0.6191 4.352311,7.92754 5.079418,8.41301 0.727106,0.48547 6.153261,5.81634 6.367671,5.86311 0.214413,0.0468 1.290513,0.0255 1.461492,0.11123 0.170977,0.0858 1.534409,1.51217 1.824379,1.6826 0.289968,0.17043 4.806246,0.8454 4.958683,0.96683 0.152435,0.12142 2.386309,2.86552 2.578727,2.91287 0.192416,0.0473 5.751333,0.29162 5.904421,0.38151 0.153085,0.0899 5.327835,1.48111 5.878621,1.54481 0.550788,0.0637 5.599673,-0.0181 5.838163,0.06 0.238488,0.078 1.846099,0.97986 2.088666,1.00636 0.242567,0.0265 2.270659,-0.29445 2.442911,-0.2712 0.172249,0.0233 1.834306,0.23549 1.834306,0.23549"
           id="path20292" />
        <path
           d="m 70.131135,193.26895 c 0,0 -7.080393,2.0364 -8.191725,3.16721 -1.111335,1.13081 -8.062288,5.62548 -8.062288,5.62548"
           id="path20294" />
        <path
           d="m 101.52073,218.16395 c 0,0 -0.88939,2.7671 -0.9676,6.78567 -0.0782,4.01858 -0.0532,4.07931 -0.0532,4.07931"
           id="path18466" />
        <path
           d="m 157.9212,225.14827 c 0,0 -5.42631,1.65077 -15.45961,3.09951 -10.03329,1.44874 -8.08073,1.5944 -10.26551,2.92574 -2.18479,1.33135 -3.65532,1.64101 -4.85106,0.71739 -1.19574,-0.92363 -2.34731,-2.42241 -2.8161,-2.38348 -0.4688,0.0389 -7.95746,0.20033 -8.64643,0.40289 -0.68896,0.20256 -3.35608,1.18925 -6.41655,0.72374 -3.06046,-0.46552 -8.96601,-1.60513 -8.96601,-1.60513"
           id="path18468" />
        <path
           d="m 101.52073,218.16395 c 0,0 5.48362,0.0932 10.90869,-0.36073 5.42507,-0.45397 8.10311,1.03164 9.81381,0.5164 1.71071,-0.51524 5.23397,-1.70682 5.6744,-2.52468 0.44043,-0.81786 0.66596,-1.97344 1.17506,-2.21466 0.50911,-0.24121 4.27567,-0.96559 4.56498,-1.24814 0.28932,-0.28256 0.515,-0.47483 0.66752,-0.52139 0.15252,-0.0466 2.31398,0.3077 2.41604,0.38853 0.10206,0.0808 4.17998,1.77144 4.57721,1.78063 0.39723,0.009 3.34664,-0.47404 3.50008,-0.65029 0.15344,-0.17626 1.75611,-2.38211 1.75611,-2.38211"
           id="path18470" />
        <path
           d="m 187.31453,205.2903 c 0,0 -3.43643,8.48378 -4.89787,9.76622 -1.46145,1.28243 -5.0001,0.12152 -6.70678,0.65567 -1.70668,0.53415 -7.28568,3.61914 -7.99031,4.27144 -0.70463,0.65229 -0.57696,2.54345 -1.26981,3.02417 -0.69285,0.48071 -5.90443,0.84908 -6.59083,1.11457 -0.6864,0.26551 -1.93773,1.0259 -1.93773,1.0259"
           id="path18472" />
        <path
           d="m 146.57463,210.94751 c 0,0 7.20847,9.97093 7.86337,10.52771 0.6549,0.55678 3.4832,3.67305 3.4832,3.67305"
           id="path18474" />
        <path
           d="m 187.31453,205.2903 c 0,0 -12.21103,-6.41368 -14.67401,-6.40509 -2.46298,0.009 -8.6969,-1.67085 -9.32806,-2.09715 -0.63115,-0.42631 -4.57066,-2.38376 -4.57066,-2.38376"
           id="path18476" />
        <path
           d="m 146.57463,210.94751 c 0,0 5.38296,-3.2688 5.70341,-5.48887 0.32045,-2.22007 -4.06433,-6.83245 -1.14322,-5.79888 2.92111,1.03357 4.23412,2.31035 4.92016,1.77953 0.68604,-0.53082 2.13851,-3.48661 2.1987,-3.88196 0.0602,-0.39534 0.48812,-3.15303 0.48812,-3.15303"
           id="path18478" />
        <path
           d="m 187.31453,205.2903 c 0,0 4.11085,-8.85911 5.64027,-10.13229 1.52942,-1.27318 3.91312,-5.37364 4.28909,-6.6479 0.37598,-1.27426 1.96414,-11.54347 1.96414,-11.54347"
           id="path18480" />
        <path
           d="m 158.7418,194.4043 c 0,0 0.18263,-4.99988 0.81791,-6.76449 0.63527,-1.76459 1.20037,-4.82062 0.34876,-6.14405"
           id="path18482" />
        <path
           d="m 199.20803,176.96664 c 0,0 -6.83118,-1.36697 -9.26318,-0.0766 -2.43198,1.29035 -9.61748,4.34573 -13.30467,4.06208 -3.68718,-0.28365 -12.79638,-0.88941 -13.99607,-0.55793 -1.19969,0.33149 -2.73564,1.10159 -2.73564,1.10159"
           id="path18484" />
        <path
           d="m 147.80062,158.44689 c 0,0 0.56011,2.32928 1.07422,2.79061 0.51411,0.46133 3.79196,4.481 3.80245,5.25938 0.0105,0.77838 0.7256,7.45833 1.27971,7.96939 0.55412,0.51105 4.36387,4.56387 4.67989,5.14843 0.31603,0.58456 1.27159,1.88107 1.27159,1.88107"
           id="path18486" />
        <path
           d="m 199.20803,176.96664 c 0,0 -3.45369,-15.2121 -3.00433,-16.56487 0.44936,-1.35276 2.95097,-5.53857 2.95097,-5.53857"
           id="path18488" />
        <path
           d="m 147.80062,158.44689 c 0,0 6.2206,-2.35677 6.86799,-2.28676 0.6474,0.07 6.13008,1.46558 6.58654,1.36878 0.45646,-0.0968 2.65123,-0.79412 3.36181,-0.77841 0.71058,0.0157 14.85966,-0.26016 14.85966,-0.26016"
           id="path18490" />
        <path
           d="m 199.15467,154.8632 c 0,0 -8.22279,0.0694 -9.34913,0.49493 -1.12635,0.42551 -2.17465,1.04237 -2.55471,1.07544 -0.38006,0.0331 -7.77421,0.0568 -7.77421,0.0568"
           id="path18492" />
        <path
           d="m 147.80062,158.44689 c 0,0 -1.32742,-8.00523 -0.005,-9.14197 1.32195,-1.13674 3.68745,-2.22924 3.62424,-2.85022 -0.0632,-0.62097 -2.30691,-2.73618 -2.02841,-3.52358 0.2785,-0.7874 0.56601,-1.97427 0.74122,-2.32706 0.1752,-0.35278 3.94366,-7.04813 3.94779,-7.14456 0.004,-0.0964 0.72938,-2.10769 1.13933,-2.38173 0.40994,-0.27403 1.6712,-0.60272 1.91184,-0.80116 0.24065,-0.19844 1.64446,-1.63193 1.76046,-1.63193 0.116,0 1.11022,0.21202 1.45014,0.0928 0.33992,-0.11923 4.70466,-2.26591 5.69931,-1.98076 0.99465,0.28516 2.79304,0.99105 3.9868,-0.0978 1.19376,-1.08891 4.97458,-3.19944 7.81181,-3.36554"
           id="path18494" />
        <path
           d="m 179.47662,156.49034 c 0,0 1.60884,-8.41591 0.97555,-10.47879 -0.63329,-2.06286 -1.70005,-8.74812 -1.98001,-9.58302 -0.27996,-0.83489 -0.63201,-13.13515 -0.63201,-13.13515"
           id="path18496" />
        <path
           d="m 199.15467,154.8632 c 0,0 1.1512,-3.50749 1.02368,-4.29393 -0.12752,-0.78645 -1.67908,-8.03127 -1.32982,-9.62304 0.34926,-1.59177 1.29493,-6.62672 0.83236,-7.58631 -0.46258,-0.9596 -2.61791,-7.92013 -3.0606,-8.17052 -0.44268,-0.25039 -8.2094,-6.54629 -9.79655,-6.00628 -1.58714,0.54001 -4.00041,1.37359 -4.63068,1.9008 -0.63027,0.52721 -4.35291,2.20946 -4.35291,2.20946"
           id="path18498" />
      </g>
    </g>
  </g>
  <path
     d="m 147.80524,100.83682 c 0.94649,-9.927358 1.20989,-9.428198 2.47927,-10.498228 1.26937,-1.07003 21.13089,-9.16213 22.13017,-10.14167 3.61767,-3.592098 6.15826,-5.882296 6.15826,-5.882296"
     id="lightning_rail"
     class="rail" />
  <g
     id="bridges"
     transform="translate(-20.68277,-38.351918)"
     class="boundaries bridges">
    <path
       d="m 124.5992,167.57484 -7.77059,-10.01902"
       id="path9966" />
    <path
       d="m 142.59235,100.28733 -5.97794,11.24184"
       id="path12098" />
    <path
       d="m 66.839671,181.57606 18.787235,5.27555"
       id="path12286" />
    <path
       d="m 177.84015,123.29338 -4.01129,-14.07864"
       id="path12288" />
    <path
       d="m 142.25634,195.04286 7.89845,4.62639"
       id="path12288-3" />
  </g>
  <g
     id="g109338"
     class="keyItems"
     transform="translate(0, 3)">
    <text
       xml:space="preserve"
       id="text67593"
       class="keyTitle"><tspan
         x="0"
         y="3"
         id="tspan210627">Key:</tspan></text>
    <path
       class="bridge"
       d="M 0,9.4826696 H 14.043525"
       id="path109373" />
    <path
       class="rail"
       d="M 0,21 H 14.043525"
       id="path109373-0" />
    <text
       xml:space="preserve"
       id="text67593-3-7"
       class="keyItem"
       x="16"
       y="20">
       <tspan x="16" id="tspan210629">Lightning</tspan>
       <tspan x="16" dy="6.5">rail</tspan>
   </text>
    <text
       xml:space="preserve"
       id="text67593-3-7-3"
       class="keyItem"
       x="16"
       y="11.5"><tspan
         id="tspan210633">Bridge</tspan></text>
  </g>
</svg>
